# xmcd
#
# Track frame offsets: 
#        150
#        13431
#        27744
#        41499
#        53968
#        68853
#        82649
#        95678
#        108763
#        121713
#        133897
#        143360
#        158695
#        172136
#        187049
#        201931
#        215485
#        229440
#
# Disc length: 3225 seconds
#
# Revision: 1
# Processed by: cddbd v1.5.1PL2 Copyright (c) Steve Scherf et al.
# Submitted via: ExactAudioCopy v0.95b3
#
DISCID=030c9712
DTITLE=Various Artist - Blues History - The Thirties - CD 1
DYEAR=2005
DGENRE=Blues
TTITLE0=Bessie Smith - Mama's Got The Blues
TTITLE1=Bessie Smith - St. Louis Blues
TTITLE2=Mississippi John Hurt - Avalon Blues
TTITLE3=Mississippi John Hurt - Candy Man Blues
TTITLE4=Memphis Minnie - Bumble Bee
TTITLE5=Blind Willie McTell - Georgia Rag
TTITLE6=Big Bill Broonzy - Too Too Train Blues
TTITLE7=Blind Willie McTell - Love-Makin' Mama
TTITLE8=Josh White - Low Cotton
TTITLE9=Big Bill Broonzy - Mississippi River Blues
TTITLE10=Huddie 'LeadBelly' LedBetter - I'm Sorry Mama
TTITLE11=Big Joe Williams - Baby Please Don't Go
TTITLE12=Huddie 'Leadbelly' Ledbetter - Death Letter Blues
TTITLE13=Big Bill Broonzy - Good Jelly
TTITLE14=Big Joe Williams - Little Leg Woman
TTITLE15=Robert Johnson - Terraplane Blues
TTITLE16=Alice Moore - I'm Going Fishing Too
TTITLE17=Memphis Minnie - Moonshine
EXTD=
EXTT0=
EXTT1=
EXTT2=
EXTT3=
EXTT4=
EXTT5=
EXTT6=
EXTT7=
EXTT8=
EXTT9=
EXTT10=
EXTT11=
EXTT12=
EXTT13=
EXTT14=
EXTT15=
EXTT16=
EXTT17=
PLAYORDER=
